HIERARCHY
ROOT Hips
{
	OFFSET -3.958830 18.904000 13.208200
	CHANNELS 6 Xposition Yposition Zposition Zrotation Yrotation Xrotation 
	JOINT LHipJoint
	{
		OFFSET 0.000000 0.000000 0.000000
		CHANNELS 3 Zrotation Yrotation Xrotation
		JOINT LeftUpLeg
		{
			OFFSET 1.800000 -1.400000 0.085000
			CHANNELS 3 Zrotation Yrotation Xrotation
			JOINT LeftLeg
			{
				OFFSET 2.215000 -6.000000 0.000000
				CHANNELS 3 Zrotation Yrotation Xrotation
				JOINT LeftFoot
				{
					OFFSET 2.500000 -6.900000 0.000000
					CHANNELS 3 Zrotation Yrotation Xrotation
					JOINT LeftToeBase
					{
						OFFSET 0.200000 -0.500000 1.950000
						CHANNELS 3 Zrotation Yrotation Xrotation
						End Site
						{
							OFFSET 0.000000 0.000000 0.000000
						}
					}
				}
			}
		}
	}
	JOINT RHipJoint
	{
		OFFSET 0.000000 0.000000 0.000000
		CHANNELS 3 Zrotation Yrotation Xrotation
		JOINT RightUpLeg
		{
			OFFSET -1.800000 -1.400000 0.085000
			CHANNELS 3 Zrotation Yrotation Xrotation
			JOINT RightLeg
			{
				OFFSET -2.215000 -6.000000 0.000000
				CHANNELS 3 Zrotation Yrotation Xrotation
				JOINT RightFoot
				{
					OFFSET -2.500000 -6.900000 0.000000
					CHANNELS 3 Zrotation Yrotation Xrotation
					JOINT RightToeBase
					{
						OFFSET -0.200000 -0.500000 1.950000
						CHANNELS 3 Zrotation Yrotation Xrotation
						End Site
						{
							OFFSET 0.000000 0.000000 0.000000
						}
					}
				}
			}
		}
	}
	JOINT LowerBack
	{
		OFFSET 0.000000 0.000000 0.000000
		CHANNELS 3 Zrotation Yrotation Xrotation
		JOINT Spine
		{
			OFFSET -0.087000 1.940000 -0.288900
			CHANNELS 3 Zrotation Yrotation Xrotation
			JOINT Spine1
			{
				OFFSET 0.000000 1.950000 0.060000
				CHANNELS 3 Zrotation Yrotation Xrotation
				JOINT Neck
				{
					OFFSET 0.000000 0.000000 0.000000
					CHANNELS 3 Zrotation Yrotation Xrotation
					JOINT Neck1
					{
						OFFSET 0.000000 1.600000 0.340000
						CHANNELS 3 Zrotation Yrotation Xrotation
						JOINT Head
						{
							OFFSET 0.000000 1.667000 -0.240000
							CHANNELS 3 Zrotation Yrotation Xrotation
							End Site
							{
								OFFSET 0.000000 0.000000 0.000000
							}
						}
					}
				}
				JOINT LeftShoulder
				{
					OFFSET 0.000000 0.000000 0.000000
					CHANNELS 3 Zrotation Yrotation Xrotation
					JOINT LeftArm
					{
						OFFSET 2.700000 1.550000 -0.730000
						CHANNELS 3 Zrotation Yrotation Xrotation
						JOINT LeftForeArm
						{
							OFFSET 5.450000 0.000000 0.000000
							CHANNELS 3 Zrotation Yrotation Xrotation
							JOINT LeftHand
							{
								OFFSET 3.450000 0.000000 0.000000
								CHANNELS 3 Zrotation Yrotation Xrotation
								JOINT LeftHandIndex1
								{
									OFFSET 0.750000 0.000000 0.000000
									CHANNELS 3 Zrotation Yrotation Xrotation
									End Site
									{
										OFFSET 0.000000 0.000000 0.000000
									}
								}
							}
						}
					}
				}
				JOINT RightShoulder
				{
					OFFSET 0.000000 0.000000 0.000000
					CHANNELS 3 Zrotation Yrotation Xrotation
					JOINT RightArm
					{
						OFFSET -2.700000 1.550000 -0.730000
						CHANNELS 3 Zrotation Yrotation Xrotation
						JOINT RightForeArm
						{
							OFFSET -5.450000 0.000000 0.000000
							CHANNELS 3 Zrotation Yrotation Xrotation
							JOINT RightHand
							{
								OFFSET -3.450000 0.000000 0.000000
								CHANNELS 3 Zrotation Yrotation Xrotation
								JOINT RightHandIndex1
								{
									OFFSET -0.750000 0.000000 0.000000
									CHANNELS 3 Zrotation Yrotation Xrotation
									End Site
									{
										OFFSET 0.000000 0.000000 0.000000
									}
								}
							}
						}
					}
				}
			}
		}
	}
}
MOTION
Frames: 8
Frame Time: 0.016667
-0.099830 17.078750 -3.396330 -14.705396 -33.318265 13.875904 -15.518299 12.339702 3.978170 13.423080 -2.187142 -34.240018 -14.091845 10.491824 23.342963 -0.960013 6.715609 2.310481 -0.015980 -0.195950 -0.543660 18.234408 -9.791707 2.729549 8.938596 4.973471 -15.804805 -3.307272 -3.441144 34.908289 -0.176159 -5.212044 3.012648 0.257840 1.245180 0.005260 -3.036982 -2.396127 -7.139925 -1.532089 3.350687 8.632088 -5.402784 6.207078 10.071097 -1.999932 -10.935810 -5.825023 -25.333166 17.055215 31.668686 2.075000 4.787870 -0.377560 -9.368124 13.222553 1.487546 -46.268163 -3.173318 0.903680 122.766209 -47.915287 -87.090259 -4.479249 2.419935 0.379710 0.725810 -0.726440 0.351500 11.841143 -3.491718 0.840773 25.396173 -5.561520 -10.614176 12.960634 62.997742 5.855739 1.197238 -1.744824 -0.769490 0.859170 0.536960 -0.080610 
-0.173370 17.019820 -3.409160 -15.745824 -34.104464 13.423216 -15.563204 12.236087 3.889142 13.638271 -1.855614 -34.572460 -13.432693 10.237038 22.759499 -0.950291 6.470959 2.384094 0.040710 -0.115380 -0.479490 18.221524 -9.451202 3.163148 10.023055 8.108484 -19.096933 -2.745424 -4.025103 44.522345 -0.537301 -6.432715 2.574205 0.261580 1.159630 -0.022220 -2.969239 -2.503661 -7.506085 -2.531156 3.623569 11.417103 -5.507917 6.489713 9.276546 -1.592603 -11.020079 -6.142417 -25.603436 16.497486 32.035470 2.628530 4.070810 -2.982380 -10.776363 11.748784 1.254996 -44.509652 -2.837355 -0.690994 120.160320 -49.294797 -85.581857 -4.379761 2.278929 0.439800 0.628710 -0.631380 0.360650 12.491462 -1.774565 1.163266 23.107611 -5.170619 -10.654330 8.621036 63.021120 3.827067 1.244515 -1.648078 -0.734190 0.884590 0.479620 -0.073450 
-0.230810 16.940480 -3.423060 -16.378280 -33.551336 12.893152 -15.611450 12.017494 3.856418 13.452498 -2.112257 -36.156798 -12.106478 10.446737 24.921996 -0.957639 6.560775 2.329791 0.038000 -0.128670 -0.444360 18.232564 -8.974729 3.686128 9.144068 11.748391 -23.963344 0.854627 -7.072861 54.695958 -0.971048 -8.172127 1.990372 0.246480 1.085440 -0.077960 -2.980080 -2.664017 -7.970829 -2.888293 3.152002 14.716765 -6.287037 5.967497 8.102976 -1.035692 -11.187843 -6.614165 -25.828618 15.901313 31.669297 2.802210 3.464270 -4.813640 -11.612635 10.352477 0.992930 -42.858989 -2.709425 -2.139469 115.933630 -50.966903 -82.164365 -4.295682 2.079285 0.512890 0.546880 -0.593370 0.332490 12.379706 -0.376282 1.694739 21.794507 -5.216472 -10.889587 4.444067 63.753565 1.863305 1.262900 -1.560238 -0.759140 0.904680 0.471980 -0.105690 
-0.265310 16.854170 -3.427820 -16.345965 -31.632766 12.275583 -15.669235 11.719639 3.877860 12.604658 -3.037942 -38.577079 -10.075488 10.700904 28.882675 -0.901223 6.832090 2.248763 0.100990 -0.071440 -0.390050 18.254152 -8.433062 4.198235 6.355386 14.786966 -30.445167 5.519159 -12.149660 63.549315 -1.505230 -10.206280 1.366808 0.266280 1.046850 -0.074220 -3.018151 -2.889223 -8.389025 -2.974965 2.007409 17.548579 -7.152307 4.761236 7.329330 -0.654209 -11.286326 -6.710827 -25.972342 15.676150 31.256351 2.280500 3.359980 -5.561070 -12.516805 9.276438 0.531559 -41.062591 -3.834697 -2.734338 110.406080 -52.737223 -76.868381 -4.206926 1.898197 0.545710 0.510830 -0.547400 0.374430 12.636857 0.346105 1.934366 20.205360 -5.604538 -10.855797 -0.243934 65.183073 -0.489331 1.260120 -1.578265 -0.746730 0.899860 0.404820 -0.105790 
-0.297600 16.752490 -3.431370 -16.333633 -30.410932 11.083092 -15.713082 11.478270 3.929403 12.344880 -3.682379 -40.289563 -8.450341 11.299738 33.236014 -0.784888 7.323734 2.040833 0.100400 -0.052230 -0.408000 18.269484 -7.965283 4.622840 3.235357 16.897969 -35.874615 9.424497 -17.318429 70.135593 -1.970501 -12.033859 0.854553 0.257620 0.990550 -0.092880 -3.055862 -3.109070 -8.774877 -3.395481 1.191520 21.081489 -7.785861 3.747468 5.960884 -0.290911 -11.543990 -7.136913 -26.676834 16.254171 30.543951 2.370830 3.626140 -5.719290 -13.819458 7.480956 0.408016 -38.994781 -4.332828 -3.742349 104.913278 -53.703488 -70.943219 -4.113901 1.775582 0.544710 0.472040 -0.531410 0.364370 13.405396 1.983997 2.347642 17.764299 -5.892575 -10.719046 -6.692102 65.940144 -3.722568 1.273549 -1.537097 -0.720010 0.857820 0.396200 -0.104050 
-0.316560 16.672070 -3.418860 -16.413994 -28.841212 9.320348 -15.696498 11.281138 4.000294 12.357327 -4.375810 -41.288820 -7.062604 11.867091 37.614011 -0.694447 7.940894 1.796519 0.103280 -0.037280 -0.401680 18.313797 -7.693841 4.874617 -0.358605 17.652288 -40.004292 12.646170 -22.156005 74.338697 -2.366621 -13.449916 0.468749 0.258110 0.950370 -0.106070 -3.211061 -3.160680 -9.041657 -3.040007 -0.227100 24.746681 -9.080137 2.355207 5.330437 -0.005917 -11.950584 -7.689254 -28.224621 17.404907 30.454704 2.937330 3.627230 -7.718820 -15.700539 4.386466 0.520965 -36.059967 -3.749537 -5.875922 96.398840 -54.854535 -62.411493 -3.991524 1.564135 0.597400 0.417800 -0.485730 0.341200 14.884364 4.708333 2.860876 14.988552 -5.374367 -10.879845 -14.579130 65.636561 -7.653754 1.268193 -1.372889 -0.718960 0.883870 0.414110 -0.108890 
-0.344920 16.599410 -3.387300 -16.168824 -28.107425 7.305789 -15.695693 11.128825 4.098470 12.974346 -4.861786 -41.533626 -7.185897 13.123459 41.679385 -0.584476 8.811490 1.474230 0.152050 -0.006660 -0.378920 18.334592 -7.503491 4.982159 -3.821724 17.584175 -42.720692 14.648516 -25.265582 76.360931 -2.596731 -14.266382 0.235545 0.288960 0.929260 -0.105650 -3.304795 -3.208458 -9.202495 -3.308168 -0.989533 27.906122 -9.335843 1.479526 4.417933 -0.415267 -12.500187 -7.781937 -30.606367 18.721167 29.766459 4.481230 2.741380 -9.394390 -16.825538 2.345700 0.341494 -34.332904 -4.304677 -7.381998 81.239949 -56.762311 -49.167189 -3.818805 1.512585 0.656130 0.366440 -0.462320 0.341660 16.842656 6.591128 2.957177 10.888295 -5.590777 -10.759024 -21.674934 67.406270 -11.772201 1.255634 -1.281944 -0.725890 0.910780 0.423030 -0.116620 
-0.359560 16.521200 -3.344650 -16.418708 -27.222246 5.171612 -15.648551 11.055549 4.147677 13.889462 -5.186234 -40.871582 -7.284023 14.179453 45.078345 -0.487910 9.528988 1.219856 0.209180 0.040220 -0.300310 18.371518 -7.509178 4.991569 -6.527037 16.774425 -43.725470 16.517823 -27.045345 75.668873 -2.665057 -14.466253 0.161125 0.331370 0.869220 -0.140360 -3.450089 -3.058469 -9.280343 -2.892316 -2.016052 31.564904 -9.780789 0.416439 3.206618 -0.494523 -12.724775 -7.110575 -31.092105 18.859577 29.503775 4.174160 2.449830 -11.165760 -18.419336 1.226074 -0.294983 -32.362105 -5.039625 -8.104590 64.235457 -58.034095 -36.859495 -3.726249 1.703194 0.706480 0.314180 -0.434440 0.331570 18.508072 7.280623 2.420955 7.172874 -4.074649 -10.314281 -27.016603 67.611643 -14.551284 1.273843 -1.209229 -0.747540 0.936390 0.391300 -0.151280 
